<svg xmlns="http://www.w3.org/2000/svg" viewBox="0 0 80 80">
  <g id="Group_2" data-name="Group 2" transform="translate(-941.425 -330.236)">
    <path id="Path_3" data-name="Path 3" d="M986.327,395.521c-2.848,1.694-6.835,4.04-8.023,7.244-1.206,3.253-.838,5.465,3.314,5.87a10.725,10.725,0,0,0,4.782-.842C991.836,405.521,989.693,400.209,986.327,395.521Z" transform="translate(-11.107 -20.221)" fill="none"/>
    <path id="Path_4" data-name="Path 4" d="M1017.074,352.075s-1.049-1.647-1.776-.919-.167,1.911-.167,1.911a37.42,37.42,0,0,1,4.113,17.169,37.818,37.818,0,1,1-37.818-37.818,37.4,37.4,0,0,1,17.306,4.184c4.3,2.273,9.009,5.788,7.3,11.263-.884,2.839-3.037,5.222-5.209,7.173a20.529,20.529,0,0,1-1.906,1.561c-.34.239-.745.594-1.051.766a7.3,7.3,0,0,1-1.866.529c-.78-1.648-1.978-3.079-3.843-2.534a2.194,2.194,0,0,0-.843,3.921,4.85,4.85,0,0,0,2.947,1.087,31.083,31.083,0,0,1,1.185,3.369,22.271,22.271,0,0,1,.248,4.779c-.08,1.463-.238,4.622-1.17,5.931-3.1,4.348-5.192-1.3-5.148-3.8.025-1.444-2.01-1.35-2.182,0-.4,3.166,1.093,7.927-1.189,10.64a22.581,22.581,0,0,1-3.727-8.624,5.462,5.462,0,0,0,.66-1.108,4.26,4.26,0,0,0-1.655-5.511,1.1,1.1,0,0,0-1.642.943,25.9,25.9,0,0,0,.246,4.652,19.6,19.6,0,0,1-3.87,2.518q-.669.34-1.332.7c-.583-.737-1.153-1.392-1.65-1.926-3.209-3.442-7.276-6.682-8.2-11.561-1.429-7.577,8.309-11.281,11.67-4.119.6,1.271,2.478.164,1.884-1.1-2.6-5.549-10.1-7-14.09-1.959-4.912,6.212.735,13.681,5.116,18.16.783.8,2.057,2.109,3.312,3.628-.852.519-1.687,1.066-2.481,1.664-2.13,1.605-4.325,3.848-4.676,6.628-.78,6.175,6.859,6.188,10.677,3.8,4.235-2.647,2.335-7.581-.232-11.393a33.063,33.063,0,0,0,4.42-2.327,25.791,25.791,0,0,0,4.652,9.327,1.087,1.087,0,0,0,1.322.171c2.6-2.009,2.927-4.682,2.9-7.515,2.3,2.607,5.873,3.093,7.5-1.913a23.893,23.893,0,0,0,.172-13.743c-.054-.191-.117-.405-.185-.627a10.272,10.272,0,0,0,3.024-1.433,23.406,23.406,0,0,0,7.481-8.178c3.589-7.08-1.39-12.506-7.505-15.734-.017-.009-.035-.013-.052-.022l0-.007a40.006,40.006,0,1,0,21.665,35.559A39.577,39.577,0,0,0,1017.074,352.075Zm-42.94,34.567a7.8,7.8,0,0,1-3.478.612c-3.02-.295-3.287-1.9-2.41-4.269.864-2.33,3.764-4.036,5.835-5.268C976.529,381.125,978.088,384.989,974.134,386.641Z" transform="translate(0)" fill="#fff"/>
  </g>
</svg>
